<?xml version="1.0" encoding="UTF-8"?>
<svg id="Layer_2" data-name="Layer 2" xmlns="http://www.w3.org/2000/svg" xmlns:xlink="http://www.w3.org/1999/xlink" viewBox="0 0 831 285">
  <defs>
    <style>
      .cls-1 {
        fill: none;
        isolation: isolate;
      }

      .cls-2 {
        fill: #fff;
      }

      .cls-3 {
        fill: url(#_未命名的渐变_174);
        opacity: .7;
      }
    </style>
    <linearGradient id="_未命名的渐变_174" data-name="未命名的渐变 174" x1="142.69" y1="162.97" x2="207.41" y2="98.26" gradientUnits="userSpaceOnUse">
      <stop offset="0" stop-color="#fff" stop-opacity=".05"/>
      <stop offset=".23" stop-color="#fff" stop-opacity=".06"/>
      <stop offset=".37" stop-color="#fff" stop-opacity=".09"/>
      <stop offset=".48" stop-color="#fff" stop-opacity=".15"/>
      <stop offset=".58" stop-color="#fff" stop-opacity=".23"/>
      <stop offset=".68" stop-color="#fff" stop-opacity=".33"/>
      <stop offset=".76" stop-color="#fff" stop-opacity=".46"/>
      <stop offset=".84" stop-color="#fff" stop-opacity=".61"/>
      <stop offset=".92" stop-color="#fff" stop-opacity=".78"/>
      <stop offset=".99" stop-color="#fff" stop-opacity=".98"/>
      <stop offset="1" stop-color="#fff"/>
    </linearGradient>
  </defs>
  <g id="_图层_1" data-name="图层 1">
    <g>
      <rect class="cls-1" width="831" height="285" rx="6" ry="6"/>
      <g>
        <g>
          <path class="cls-2" d="M41.33,44.09h29.44c1.11,0,2,.9,2,2V125.43c0,1.8,2.19,2.68,3.44,1.39,22.08-22.82,44.16-45.63,66.24-68.45,.81-.84,1.63-1.68,2.44-2.52,.38-.39,.9-.61,1.44-.61h14.6c1.11,0,2,.9,2,2v24.33c0,.52-.2,1.03-.57,1.4-29.67,30.31-59.35,60.62-89.02,90.93-.37,.37-.57,.88-.57,1.4v59.71c0,1.11-.9,2-2,2h-29.44c-1.11,0-2-.9-2-2V46.09c0-1.11,.9-2,2-2Z"/>
          <path class="cls-2" d="M104.39,158.37c7.43-7.43,14.87-14.87,22.3-22.3,.92-.92,2.47-.73,3.14,.4,25.15,42.69,50.29,85.37,75.44,128.06,.79,1.33-.18,3.01-1.72,3.01h-37.03c-.72,0-1.38-.38-1.73-1-20.24-35.25-40.47-70.51-60.71-105.76-.45-.78-.32-1.77,.32-2.41Z"/>
          <path class="cls-2" d="M282.75,131.26c-28.46,28.61-56.91,57.22-85.37,85.84-.81,.81-2.14,.78-2.9-.08-5.9-6.6-11.8-13.21-17.71-19.81-.7-.78-.67-1.97,.06-2.72,19.8-20.27,39.6-40.53,59.4-60.8,.75-.77,.76-1.98,.03-2.76-20.39-21.64-40.77-43.28-61.16-64.92-.35-.37-.54-.86-.54-1.37V18.58c0-1.81,2.21-2.68,3.45-1.37,34.93,37.09,69.85,74.18,104.78,111.27,.74,.78,.72,2.01-.04,2.78Z"/>
          <path class="cls-3" d="M174.57,65.42c21.01,22.3,42.01,44.6,63.02,66.89-20.68,21.17-41.36,42.33-62.05,63.5-.32-43.46-.65-86.93-.97-130.39Z"/>
        </g>
        <g>
          <path class="cls-2" d="M320.89,97.66h.2l18.51-29.08h15.86l-19.73,31.12,21.97,41.49h-16.47l-14.95-29.8-5.39,8.24v21.56h-14.64V68.58h14.64v29.08Z"/>
          <path class="cls-2" d="M363.1,148.61c2.58,0,4.42-.68,5.54-2.03,1.12-1.36,1.78-3.15,1.98-5.39l-15.36-54.71h14.64l8.14,37.83h.2l7.12-37.83h14.03l-13.22,51.05c-1.22,4.54-2.39,8.22-3.51,11.03-1.12,2.81-2.44,4.98-3.97,6.51s-3.36,2.53-5.49,3c-2.14,.47-4.83,.71-8.08,.71h-5.7v-10.47c1.22,.2,2.44,.31,3.66,.31Z"/>
          <path class="cls-2" d="M432.45,135.39c-1.56,2.58-3.3,4.37-5.24,5.39-1.93,1.02-4.32,1.53-7.17,1.53-5.76,0-10-2.2-12.71-6.61-2.71-4.41-4.07-11.69-4.07-21.86s1.36-17.51,4.07-22.02c2.71-4.51,6.95-6.76,12.71-6.76,2.64,0,4.9,.54,6.76,1.63,1.86,1.08,3.54,2.71,5.03,4.88h.2v-22.98h14.03v72.61h-13.42v-5.8h-.2Zm-13.78-8.08c.92,3.02,2.9,4.53,5.95,4.53s5.14-1.51,6.05-4.53c.92-3.02,1.37-7.51,1.37-13.47s-.46-10.46-1.37-13.47c-.92-3.02-2.93-4.53-6.05-4.53s-5.03,1.51-5.95,4.53c-.92,3.02-1.37,7.51-1.37,13.47s.46,10.46,1.37,13.47Z"/>
          <path class="cls-2" d="M467.43,120.34c0,1.63,.12,3.2,.36,4.73,.24,1.53,.63,2.88,1.17,4.07,.54,1.19,1.25,2.14,2.14,2.85,.88,.71,1.97,1.07,3.25,1.07,2.37,0,4.1-.85,5.19-2.54,1.08-1.69,1.83-4.27,2.24-7.73h12.61c-.27,6.37-1.97,11.22-5.08,14.54-3.12,3.32-8.03,4.98-14.75,4.98-5.08,0-9.05-.85-11.9-2.54-2.85-1.69-4.95-3.93-6.31-6.71-1.36-2.78-2.19-5.9-2.49-9.36-.3-3.46-.46-6.92-.46-10.37,0-3.66,.25-7.19,.76-10.58,.51-3.39,1.53-6.41,3.05-9.05,1.53-2.64,3.71-4.74,6.56-6.3,2.85-1.56,6.64-2.34,11.39-2.34,4.07,0,7.41,.66,10.02,1.98,2.61,1.32,4.66,3.19,6.15,5.59,1.49,2.41,2.51,5.32,3.05,8.75,.54,3.42,.81,7.24,.81,11.44v3.15h-27.76v4.37Zm13.93-18.25c-.2-1.59-.56-2.95-1.07-4.07-.51-1.12-1.22-1.97-2.13-2.54-.92-.58-2.08-.86-3.51-.86s-2.59,.32-3.51,.97c-.92,.64-1.64,1.49-2.19,2.54-.54,1.05-.93,2.22-1.17,3.51-.24,1.29-.36,2.58-.36,3.86v2.14h14.34c-.07-2.1-.2-3.95-.41-5.54Z"/>
          <path class="cls-2" d="M515.94,86.47v6.41h.2c1.49-2.71,3.42-4.69,5.8-5.95,2.37-1.25,5.08-1.88,8.14-1.88,4.47,0,7.92,1.22,10.32,3.66,2.41,2.44,3.61,6.41,3.61,11.9v40.58h-14.03v-37.73c0-2.85-.48-4.83-1.42-5.95-.95-1.12-2.48-1.68-4.58-1.68-4.95,0-7.42,3.02-7.42,9.05v36.31h-14.03v-54.71h13.42Z"/>
          <path class="cls-2" d="M331.88,165.29c3.73,0,6.86,.63,9.41,1.88,2.54,1.26,4.59,2.9,6.15,4.93,1.56,2.03,2.68,4.36,3.36,6.97,.68,2.61,1.02,5.27,1.02,7.98,0,3.73-.56,6.98-1.68,9.76-1.12,2.78-2.68,5.05-4.68,6.81-2,1.76-4.42,3.09-7.27,3.97-2.85,.88-6,1.32-9.46,1.32h-7.83v28.98h-14.64v-72.61h25.63Zm-4.47,32.85c2.91,0,5.27-.88,7.07-2.64,1.8-1.76,2.7-4.51,2.7-8.24s-.78-6.44-2.34-8.34c-1.56-1.9-4.17-2.85-7.83-2.85h-6.1v22.07h6.51Z"/>
          <path class="cls-2" d="M372.05,183.19v7.32h.2c1.42-2.64,3.15-4.76,5.19-6.36,2.03-1.59,4.51-2.39,7.42-2.39,.41,0,.83,.02,1.27,.05,.44,.04,.86,.09,1.27,.15v13.42c-.75-.07-1.47-.12-2.19-.15-.71-.03-1.44-.05-2.19-.05-1.22,0-2.44,.17-3.66,.51-1.22,.34-2.34,.9-3.36,1.68-1.02,.78-1.83,1.8-2.44,3.05-.61,1.25-.92,2.8-.92,4.63v32.85h-14.03v-54.71h13.42Z"/>
          <path class="cls-2" d="M391.78,198.14c.75-3.59,1.97-6.59,3.66-9,1.69-2.41,3.92-4.24,6.66-5.49,2.75-1.25,6.12-1.88,10.12-1.88,4.2-.07,7.69,.49,10.47,1.68,2.78,1.19,4.98,3,6.61,5.44,1.63,2.44,2.78,5.46,3.46,9.05,.68,3.59,1.02,7.8,1.02,12.61s-.37,8.81-1.12,12.41c-.75,3.59-1.97,6.59-3.66,9-1.7,2.41-3.92,4.19-6.66,5.34s-6.12,1.73-10.12,1.73c-4.21,.07-7.7-.46-10.47-1.58-2.78-1.12-4.98-2.88-6.61-5.29-1.63-2.41-2.78-5.42-3.46-9.05-.68-3.63-1.02-7.81-1.02-12.56s.37-8.81,1.12-12.41Zm13.12,20.14c.13,2.37,.46,4.41,.97,6.1,.51,1.7,1.27,3.02,2.29,3.97,1.02,.95,2.37,1.42,4.07,1.42,2.85,0,4.81-1.49,5.9-4.47,1.08-2.98,1.63-7.9,1.63-14.75s-.54-11.76-1.63-14.75c-1.08-2.98-3.05-4.47-5.9-4.47-1.7,0-3.05,.47-4.07,1.42-1.02,.95-1.78,2.27-2.29,3.97-.51,1.7-.83,3.73-.97,6.1-.14,2.37-.2,4.95-.2,7.73s.07,5.36,.2,7.73Z"/>
          <path class="cls-2" d="M454.72,183.19v5.59h.2c1.76-2.51,3.75-4.3,5.95-5.39,2.2-1.08,4.83-1.63,7.88-1.63,3.25,0,5.98,.75,8.19,2.24,2.2,1.49,3.68,3.66,4.42,6.51h.2c1.08-2.91,2.83-5.1,5.24-6.56,2.41-1.46,5.27-2.19,8.59-2.19,4.68,0,8.12,1.41,10.32,4.22,2.2,2.81,3.31,6.87,3.31,12.15v39.76h-14.03v-38.24c0-2.3-.42-4.07-1.27-5.29-.85-1.22-2.25-1.83-4.22-1.83-2.24,0-4.02,.75-5.34,2.24-1.32,1.49-1.98,3.86-1.98,7.12v36h-14.03v-38.24c0-2.3-.42-4.07-1.27-5.29-.85-1.22-2.25-1.83-4.22-1.83-2.24,0-4.02,.75-5.34,2.24-1.32,1.49-1.98,3.86-1.98,7.12v36h-14.03v-54.71h13.42Z"/>
          <path class="cls-2" d="M531.81,183.19v5.8h.2c1.56-2.58,3.31-4.42,5.24-5.54,1.93-1.12,4.32-1.68,7.17-1.68,5.76,0,10,2.25,12.71,6.76,2.71,4.51,4.07,11.85,4.07,22.02s-1.36,17.46-4.07,21.86c-2.71,4.41-6.95,6.61-12.71,6.61-2.64,0-4.9-.49-6.76-1.47-1.87-.98-3.54-2.56-5.03-4.73h-.2v22.68h-14.03v-72.3h13.42Zm1.98,40.83c.92,3.02,2.93,4.53,6.05,4.53s5.03-1.51,5.95-4.53c.92-3.02,1.37-7.51,1.37-13.47s-.46-10.46-1.37-13.47c-.92-3.02-2.9-4.53-5.95-4.53s-5.14,1.51-6.05,4.53c-.92,3.02-1.37,7.51-1.37,13.47s.46,10.46,1.37,13.47Z"/>
          <path class="cls-2" d="M586.32,167.53v15.66h8.14v9.56h-8.14v29.59c0,2.17,.32,3.71,.97,4.63,.64,.92,1.98,1.37,4.02,1.37,.54,0,1.08-.02,1.63-.05,.54-.03,1.05-.08,1.53-.15v9.76c-1.56,0-3.07,.05-4.53,.15-1.46,.1-3,.15-4.63,.15-2.71,0-4.93-.19-6.66-.56-1.73-.37-3.05-1.12-3.97-2.24-.92-1.12-1.54-2.59-1.88-4.42-.34-1.83-.51-4.13-.51-6.92v-31.32h-7.12v-9.56h7.12v-15.66h14.03Z"/>
          <path class="cls-2" d="M662.89,177.29h-15.87v60.61h-14.64v-60.61h-15.86v-12h46.37v12Z"/>
          <path class="cls-2" d="M673.27,217.05c0,1.63,.12,3.2,.36,4.73,.24,1.53,.63,2.88,1.17,4.07,.54,1.19,1.25,2.14,2.14,2.85,.88,.71,1.97,1.07,3.25,1.07,2.37,0,4.1-.85,5.19-2.54,1.08-1.69,1.83-4.27,2.24-7.73h12.61c-.27,6.37-1.97,11.22-5.08,14.54-3.12,3.32-8.03,4.98-14.75,4.98-5.08,0-9.05-.85-11.9-2.54-2.85-1.69-4.95-3.93-6.31-6.71-1.36-2.78-2.19-5.9-2.49-9.36-.3-3.46-.46-6.92-.46-10.37,0-3.66,.25-7.19,.76-10.58,.51-3.39,1.53-6.41,3.05-9.05,1.53-2.64,3.71-4.74,6.56-6.3,2.85-1.56,6.64-2.34,11.39-2.34,4.07,0,7.41,.66,10.02,1.98,2.61,1.32,4.66,3.19,6.15,5.59,1.49,2.41,2.51,5.32,3.05,8.75,.54,3.42,.81,7.24,.81,11.44v3.15h-27.76v4.37Zm13.93-18.25c-.2-1.59-.56-2.95-1.07-4.07-.51-1.12-1.22-1.97-2.13-2.54-.92-.58-2.08-.86-3.51-.86s-2.59,.32-3.51,.97c-.92,.64-1.64,1.49-2.19,2.54-.54,1.05-.93,2.22-1.17,3.51-.24,1.29-.36,2.58-.36,3.86v2.14h14.34c-.07-2.1-.2-3.95-.41-5.54Z"/>
          <path class="cls-2" d="M734.44,198.95c-.17-1.29-.47-2.46-.92-3.51-.44-1.05-1.07-1.9-1.88-2.54-.81-.64-1.9-.97-3.25-.97-1.7,0-3.09,.39-4.17,1.17-1.08,.78-1.9,1.93-2.44,3.46-.54,1.53-.92,3.46-1.12,5.8-.2,2.34-.31,5.1-.31,8.29,0,3.39,.1,6.29,.31,8.7,.2,2.41,.58,4.39,1.12,5.95,.54,1.56,1.3,2.7,2.29,3.41,.98,.71,2.25,1.07,3.81,1.07,2.37,0,4.1-1.02,5.19-3.05,1.08-2.03,1.63-5.29,1.63-9.76h13.42c0,7.19-1.61,12.66-4.83,16.42-3.22,3.76-8.56,5.64-16.02,5.64-3.53,0-6.59-.42-9.2-1.27-2.61-.85-4.78-2.37-6.51-4.58-1.73-2.2-3.04-5.15-3.92-8.85-.88-3.69-1.32-8.29-1.32-13.78s.54-10.29,1.63-13.98c1.08-3.69,2.61-6.64,4.58-8.85,1.97-2.2,4.3-3.75,7.02-4.63,2.71-.88,5.7-1.32,8.95-1.32,6.51,0,11.41,1.9,14.7,5.69,3.29,3.8,4.93,8.95,4.93,15.46h-13.42c0-1.36-.08-2.68-.25-3.97Z"/>
          <path class="cls-2" d="M769.47,165.29v23.49h.2c2.71-4.68,7.15-7.02,13.32-7.02,4.47,0,7.92,1.22,10.32,3.66,2.41,2.44,3.61,6.41,3.61,11.9v40.58h-14.03v-37.73c0-2.85-.48-4.83-1.42-5.95-.95-1.12-2.48-1.68-4.58-1.68-4.95,0-7.42,3.02-7.42,9.05v36.31h-14.03v-72.61h14.03Z"/>
        </g>
      </g>
    </g>
  </g>
</svg>